<svg width="112" height="28" viewBox="0 0 112 28" fill="none" xmlns="http://www.w3.org/2000/svg">
<circle cx="98.5498" cy="13" r="13" fill="#BAA370"/>
<path fill-rule="evenodd" clip-rule="evenodd" d="M14.2216 1.50002H13.755V17.53C13.755 18.37 13.6033 19.105 13.3 19.735C13.02 20.3417 12.5883 20.82 12.005 21.17C11.445 21.52 10.7333 21.695 9.87 21.695C8.96 21.695 8.21333 21.52 7.63 21.17C7.07 20.82 6.63833 20.3417 6.335 19.735C6.03167 19.105 5.88 18.37 5.88 17.53V1.50002H0V17.95C0 19.49 0.245 20.8317 0.735 21.975C1.225 23.095 1.91333 24.04 2.8 24.81C3.71 25.5567 4.76 26.105 5.95 26.455C7.14 26.8284 8.435 27.015 9.835 27.015C11.1883 27.015 12.46 26.8284 13.65 26.455C14.8633 26.105 15.9133 25.5567 16.8 24.81C17.71 24.04 18.41 23.095 18.9 21.975C19.4133 20.8317 19.67 19.49 19.67 17.95V6.94845L14.2216 1.50002ZM29.546 13.75C29.546 12.6534 29.7093 11.6617 30.036 10.775C30.1171 10.5549 30.2068 10.342 30.3052 10.1363L25.917 5.74813C25.2625 6.59445 24.7222 7.53508 24.296 8.57002C23.6427 10.1334 23.316 11.86 23.316 13.75C23.316 15.64 23.631 17.3784 24.261 18.965C24.891 20.5517 25.801 21.9284 26.991 23.095C28.181 24.2617 29.581 25.1717 31.191 25.825C32.801 26.455 34.5743 26.77 36.511 26.77C38.4244 26.77 40.1744 26.455 41.761 25.825C42.7521 25.4228 43.6636 24.9234 44.4955 24.3267L40.2422 20.0733C39.9496 20.2619 39.6392 20.4292 39.311 20.575C38.471 20.9484 37.5377 21.135 36.511 21.135C35.461 21.135 34.5043 20.9484 33.641 20.575C32.801 20.2017 32.066 19.6884 31.436 19.035C30.8293 18.3817 30.3627 17.6 30.036 16.69C29.7093 15.78 29.546 14.8 29.546 13.75ZM42.881 16.725C42.8514 16.8053 42.8207 16.8847 42.7888 16.9631L47.3273 21.5016C47.8828 20.726 48.3491 19.8804 48.726 18.965C49.3793 17.3784 49.706 15.64 49.706 13.75C49.706 11.86 49.3677 10.1334 48.691 8.57002C48.0144 6.98336 47.081 5.61836 45.891 4.47502C44.7243 3.33169 43.336 2.45669 41.726 1.85002C40.1394 1.24336 38.401 0.940024 36.511 0.940024C34.621 0.940024 32.871 1.24336 31.261 1.85002C30.405 2.17259 29.6083 2.57102 28.871 3.0453L33.0475 7.22183C33.2392 7.11464 33.437 7.0157 33.641 6.92502C34.5043 6.55169 35.461 6.36502 36.511 6.36502C37.561 6.36502 38.506 6.55169 39.346 6.92502C40.2094 7.29836 40.9444 7.81169 41.551 8.46502C42.1577 9.11836 42.6127 9.90002 42.916 10.81C43.2193 11.6967 43.371 12.6767 43.371 13.75C43.371 14.8234 43.2077 15.815 42.881 16.725ZM59.7611 13.54L66.4461 23.725L73.1311 13.54L74.6361 26H80.9011L76.8761 0.275024L66.4461 15.185L55.9811 0.275024L52.0611 26H58.2561L59.7611 13.54Z" fill="#222222"/>
</svg>
